<svg width="44" height="48" viewBox="0 0 44 48" fill="none" xmlns="http://www.w3.org/2000/svg">
<g filter="url(#filter0_d)">
<mask id="path-1-outside-1" maskUnits="userSpaceOnUse" x="4" y="0" width="36" height="40" fill="black">
<rect fill="white" x="4" width="36" height="40"/>
<path fill-rule="evenodd" clip-rule="evenodd" d="M8 2C6.89543 2 6 2.89543 6 4V32C6 33.1046 6.89543 34 8 34H18.5359L22 37L25.4641 34H36C37.1046 34 38 33.1046 38 32V4C38 2.89543 37.1046 2 36 2H8Z"/>
</mask>
<path fill-rule="evenodd" clip-rule="evenodd" d="M8 2C6.89543 2 6 2.89543 6 4V32C6 33.1046 6.89543 34 8 34H18.5359L22 37L25.4641 34H36C37.1046 34 38 33.1046 38 32V4C38 2.89543 37.1046 2 36 2H8Z" fill="#FDEAD1"/>
<path d="M18.5359 34L19.8452 32.4881L19.2815 32H18.5359V34ZM22 37L20.6907 38.5119L22 39.6458L23.3093 38.5119L22 37ZM25.4641 34V32H24.7185L24.1548 32.4881L25.4641 34ZM8 4V0C5.79086 0 4 1.79086 4 4H8ZM8 32V4H4V32H8ZM8 32H4C4 34.2091 5.79086 36 8 36V32ZM18.5359 32H8V36H18.5359V32ZM23.3093 35.4881L19.8452 32.4881L17.2266 35.5119L20.6907 38.5119L23.3093 35.4881ZM24.1548 32.4881L20.6907 35.4881L23.3093 38.5119L26.7734 35.5119L24.1548 32.4881ZM36 32H25.4641V36H36V32ZM36 32V36C38.2091 36 40 34.2091 40 32H36ZM36 4V32H40V4H36ZM36 4H40C40 1.79086 38.2091 0 36 0V4ZM8 4H36V0H8V4Z" fill="white" mask="url(#path-1-outside-1)"/>
<path d="M25.4284 18C28.9056 19.8151 30.7164 24.0956 29.7347 28.1914C24.8119 30.6029 19.188 30.6029 14.2655 28.1914C13.2833 24.0956 15.0946 19.8151 18.5738 18C20.5811 19.7499 23.4183 19.7499 25.4284 18Z" fill="#F3961B"/>
<ellipse cx="21.9999" cy="13.5" rx="4.23529" ry="4.5" fill="#F3961B"/>
</g>
<defs>
<filter id="filter0_d" x="0" y="0" width="44" height="47.6458" filterUnits="userSpaceOnUse" color-interpolation-filters="sRGB">
<feFlood flood-opacity="0" result="BackgroundImageFix"/>
<feColorMatrix in="SourceAlpha" type="matrix" values="0 0 0 0 0 0 0 0 0 0 0 0 0 0 0 0 0 0 127 0"/>
<feOffset dy="4"/>
<feGaussianBlur stdDeviation="2"/>
<feColorMatrix type="matrix" values="0 0 0 0 0 0 0 0 0 0 0 0 0 0 0 0 0 0 0.25 0"/>
<feBlend mode="normal" in2="BackgroundImageFix" result="effect1_dropShadow"/>
<feBlend mode="normal" in="SourceGraphic" in2="effect1_dropShadow" result="shape"/>
</filter>
</defs>
</svg>
