<svg width="44" height="48" viewBox="0 0 44 48" fill="none" xmlns="http://www.w3.org/2000/svg">
<g filter="url(#filter0_d)">
<mask id="path-1-outside-1" maskUnits="userSpaceOnUse" x="4" y="0" width="36" height="40" fill="black">
<rect fill="white" x="4" width="36" height="40"/>
<path fill-rule="evenodd" clip-rule="evenodd" d="M8 2C6.89543 2 6 2.89543 6 4V32C6 33.1046 6.89543 34 8 34H18.5359L22 37L25.4641 34H36C37.1046 34 38 33.1046 38 32V4C38 2.89543 37.1046 2 36 2H8Z"/>
</mask>
<path fill-rule="evenodd" clip-rule="evenodd" d="M8 2C6.89543 2 6 2.89543 6 4V32C6 33.1046 6.89543 34 8 34H18.5359L22 37L25.4641 34H36C37.1046 34 38 33.1046 38 32V4C38 2.89543 37.1046 2 36 2H8Z" fill="#FDEAD1"/>
<path d="M18.5359 34L19.8452 32.4881L19.2815 32H18.5359V34ZM22 37L20.6907 38.5119L22 39.6458L23.3093 38.5119L22 37ZM25.4641 34V32H24.7185L24.1548 32.4881L25.4641 34ZM8 4V0C5.79086 0 4 1.79086 4 4H8ZM8 32V4H4V32H8ZM8 32H4C4 34.2091 5.79086 36 8 36V32ZM18.5359 32H8V36H18.5359V32ZM23.3093 35.4881L19.8452 32.4881L17.2266 35.5119L20.6907 38.5119L23.3093 35.4881ZM24.1548 32.4881L20.6907 35.4881L23.3093 38.5119L26.7734 35.5119L24.1548 32.4881ZM36 32H25.4641V36H36V32ZM36 32V36C38.2091 36 40 34.2091 40 32H36ZM36 4V32H40V4H36ZM36 4H40C40 1.79086 38.2091 0 36 0V4ZM8 4H36V0H8V4Z" fill="white" mask="url(#path-1-outside-1)"/>
<path d="M28.9744 19H28.6908L25.54 13.4375C25.4041 13.197 25.0615 13 24.7795 13H15.2205C14.9385 13 14.5959 13.197 14.46 13.4375L11.3087 19H11.0256C10.4615 19 10 19.45 10 20V25C10 25.55 10.4615 26 11.0256 26H12.0513V27.5C12.0513 28.325 12.7436 29 13.5897 29H14.1026C14.9487 29 15.641 28.325 15.641 27.5V26H24.359V27.5C24.359 28.325 25.0513 29 25.8974 29H26.4103C27.2564 29 27.9487 28.325 27.9487 27.5V26H28.9744C29.5385 26 30 25.55 30 25V20C30 19.45 29.5385 19 28.9744 19ZM12.8205 23C12.1123 23 11.5385 22.4405 11.5385 21.75C11.5385 21.0595 12.1123 20.5 12.8205 20.5C13.5287 20.5 14.1026 21.0595 14.1026 21.75C14.1026 22.4405 13.5287 23 12.8205 23ZM13.8462 19L15.9246 14.9475C16.0508 14.701 16.3846 14.5 16.6667 14.5H23.3333C23.6154 14.5 23.9492 14.701 24.0754 14.9475L26.1538 19H13.8462ZM27.1795 23C26.4713 23 25.8974 22.4405 25.8974 21.75C25.8974 21.0595 26.4713 20.5 27.1795 20.5C27.8877 20.5 28.4615 21.0595 28.4615 21.75C28.4615 22.4405 27.8877 23 27.1795 23Z" fill="#F3961B"/>
<path d="M28.6729 9.01955C29.1389 8.95068 29.4845 8.58165 29.5371 8.1408C29.5905 7.69247 29.7109 5.8908 28.9331 6.00541C26.9154 6.30296 27.057 9.2578 28.6729 9.01955ZM31.3275 9.01955C32.9429 9.2578 33.0845 6.30296 31.0669 6.00523C30.2893 5.89063 30.4095 7.6923 30.4627 8.14063C30.5155 8.58165 30.8615 8.95068 31.3275 9.01955ZM27.8441 10.4117C27.8441 10.1772 27.7479 9.96473 27.5928 9.81013C27.3378 9.5204 26.5272 8.93451 26.3282 9.08459C25.9128 9.39867 25.9262 10.1717 26.1764 10.7334C26.305 11.0457 26.6156 11.2654 26.9786 11.2654C27.4564 11.2654 27.8441 10.8831 27.8441 10.4117ZM33.6715 9.08459C33.4729 8.93451 32.6623 9.5204 32.4073 9.81013C32.2523 9.96473 32.1559 10.1772 32.1559 10.4117C32.1559 10.8831 32.5439 11.2654 33.0213 11.2654C33.3845 11.2654 33.6953 11.0457 33.8239 10.7334C34.0735 10.1717 34.0873 9.39867 33.6715 9.08459ZM32.0443 11.7414C31.3091 11.4226 31.3319 10.8087 31.1647 10.2485C31.0317 9.80178 30.5607 9.47136 30.0001 9.47136C29.4515 9.47136 28.9887 9.78804 28.8443 10.2212C28.6653 10.7572 28.7731 11.3812 27.9717 11.7372C27.3206 11.9217 27.057 12.1909 27.057 12.8276C27.057 13.3448 27.5676 13.8985 28.2267 13.9674C28.9619 14.0637 29.5355 13.9378 30.0001 13.7075C30.4647 13.9378 31.0379 14.0635 31.7743 13.9674C32.4329 13.8985 32.9437 13.3469 32.9437 12.8276C32.9435 12.177 32.6967 11.9346 32.0443 11.7414Z" fill="#F3961B"/>
</g>
<defs>
<filter id="filter0_d" x="0" y="0" width="44" height="47.6458" filterUnits="userSpaceOnUse" color-interpolation-filters="sRGB">
<feFlood flood-opacity="0" result="BackgroundImageFix"/>
<feColorMatrix in="SourceAlpha" type="matrix" values="0 0 0 0 0 0 0 0 0 0 0 0 0 0 0 0 0 0 127 0"/>
<feOffset dy="4"/>
<feGaussianBlur stdDeviation="2"/>
<feColorMatrix type="matrix" values="0 0 0 0 0 0 0 0 0 0 0 0 0 0 0 0 0 0 0.25 0"/>
<feBlend mode="normal" in2="BackgroundImageFix" result="effect1_dropShadow"/>
<feBlend mode="normal" in="SourceGraphic" in2="effect1_dropShadow" result="shape"/>
</filter>
</defs>
</svg>
