<svg width="44" height="48" viewBox="0 0 44 48" fill="none" xmlns="http://www.w3.org/2000/svg">
<g filter="url(#filter0_d)">
<mask id="path-1-outside-1" maskUnits="userSpaceOnUse" x="4" y="0" width="36" height="40" fill="black">
<rect fill="white" x="4" width="36" height="40"/>
<path fill-rule="evenodd" clip-rule="evenodd" d="M8 2C6.89543 2 6 2.89543 6 4V32C6 33.1046 6.89543 34 8 34H18.5359L22 37L25.4641 34H36C37.1046 34 38 33.1046 38 32V4C38 2.89543 37.1046 2 36 2H8Z"/>
</mask>
<path fill-rule="evenodd" clip-rule="evenodd" d="M8 2C6.89543 2 6 2.89543 6 4V32C6 33.1046 6.89543 34 8 34H18.5359L22 37L25.4641 34H36C37.1046 34 38 33.1046 38 32V4C38 2.89543 37.1046 2 36 2H8Z" fill="#FBDDDD"/>
<path d="M18.5359 34L19.8452 32.4881L19.2815 32H18.5359V34ZM22 37L20.6907 38.5119L22 39.6458L23.3093 38.5119L22 37ZM25.4641 34V32H24.7185L24.1548 32.4881L25.4641 34ZM8 4V0C5.79086 0 4 1.79086 4 4H8ZM8 32V4H4V32H8ZM8 32H4C4 34.2091 5.79086 36 8 36V32ZM18.5359 32H8V36H18.5359V32ZM23.3093 35.4881L19.8452 32.4881L17.2266 35.5119L20.6907 38.5119L23.3093 35.4881ZM24.1548 32.4881L20.6907 35.4881L23.3093 38.5119L26.7734 35.5119L24.1548 32.4881ZM36 32H25.4641V36H36V32ZM36 32V36C38.2091 36 40 34.2091 40 32H36ZM36 4V32H40V4H36ZM36 4H40C40 1.79086 38.2091 0 36 0V4ZM8 4H36V0H8V4Z" fill="white" mask="url(#path-1-outside-1)"/>
<path d="M25.2885 7.47564L25.8365 6H34V6.86311L33.5962 7.92111H31.2596C31.101 8.97912 30.5096 9.52204 28.649 9.31323L27.6538 11.9722L25 12C25.1875 9.04872 27.4231 8.32483 25.2885 7.47564ZM30.4375 8.81207C30.6971 8.65893 30.8413 8.38051 30.9135 7.92111V7.90719H29.7885C29.8029 7.94896 29.8173 7.99072 29.8317 8.01856C29.8894 8.14385 29.976 8.25522 30.1202 8.39443C30.1923 8.46404 30.2067 8.58933 30.1346 8.65893C30.0625 8.72854 29.9471 8.74246 29.8606 8.67285C29.6875 8.51972 29.5577 8.35267 29.4856 8.18561C29.4423 8.10209 29.4135 8.00464 29.399 7.92111H29.1827L28.7933 8.9652C29.6731 9.06265 30.149 8.97912 30.4375 8.81207Z" fill="#EB5757"/>
<path d="M28.9744 19H28.6908L25.54 13.4375C25.4041 13.197 25.0615 13 24.7795 13H15.2205C14.9385 13 14.5959 13.197 14.46 13.4375L11.3087 19H11.0256C10.4615 19 10 19.45 10 20V25C10 25.55 10.4615 26 11.0256 26H12.0513V27.5C12.0513 28.325 12.7436 29 13.5897 29H14.1026C14.9487 29 15.641 28.325 15.641 27.5V26H24.359V27.5C24.359 28.325 25.0513 29 25.8974 29H26.4103C27.2564 29 27.9487 28.325 27.9487 27.5V26H28.9744C29.5385 26 30 25.55 30 25V20C30 19.45 29.5385 19 28.9744 19ZM12.8205 23C12.1123 23 11.5385 22.4405 11.5385 21.75C11.5385 21.0595 12.1123 20.5 12.8205 20.5C13.5287 20.5 14.1026 21.0595 14.1026 21.75C14.1026 22.4405 13.5287 23 12.8205 23ZM13.8462 19L15.9246 14.9475C16.0508 14.701 16.3846 14.5 16.6667 14.5H23.3333C23.6154 14.5 23.9492 14.701 24.0754 14.9475L26.1538 19H13.8462ZM27.1795 23C26.4713 23 25.8974 22.4405 25.8974 21.75C25.8974 21.0595 26.4713 20.5 27.1795 20.5C27.8877 20.5 28.4615 21.0595 28.4615 21.75C28.4615 22.4405 27.8877 23 27.1795 23Z" fill="#EB5757"/>
</g>
<defs>
<filter id="filter0_d" x="0" y="0" width="44" height="47.6458" filterUnits="userSpaceOnUse" color-interpolation-filters="sRGB">
<feFlood flood-opacity="0" result="BackgroundImageFix"/>
<feColorMatrix in="SourceAlpha" type="matrix" values="0 0 0 0 0 0 0 0 0 0 0 0 0 0 0 0 0 0 127 0"/>
<feOffset dy="4"/>
<feGaussianBlur stdDeviation="2"/>
<feColorMatrix type="matrix" values="0 0 0 0 0 0 0 0 0 0 0 0 0 0 0 0 0 0 0.25 0"/>
<feBlend mode="normal" in2="BackgroundImageFix" result="effect1_dropShadow"/>
<feBlend mode="normal" in="SourceGraphic" in2="effect1_dropShadow" result="shape"/>
</filter>
</defs>
</svg>
