<svg width="44" height="48" viewBox="0 0 44 48" fill="none" xmlns="http://www.w3.org/2000/svg">
<g filter="url(#filter0_d)">
<mask id="path-1-outside-1" maskUnits="userSpaceOnUse" x="4" y="0" width="36" height="40" fill="black">
<rect fill="white" x="4" width="36" height="40"/>
<path fill-rule="evenodd" clip-rule="evenodd" d="M8 2C6.89543 2 6 2.89543 6 4V32C6 33.1046 6.89543 34 8 34H18.5359L22 37L25.4641 34H36C37.1046 34 38 33.1046 38 32V4C38 2.89543 37.1046 2 36 2H8Z"/>
</mask>
<path fill-rule="evenodd" clip-rule="evenodd" d="M8 2C6.89543 2 6 2.89543 6 4V32C6 33.1046 6.89543 34 8 34H18.5359L22 37L25.4641 34H36C37.1046 34 38 33.1046 38 32V4C38 2.89543 37.1046 2 36 2H8Z" fill="#FDEAD1"/>
<path d="M18.5359 34L19.8452 32.4881L19.2815 32H18.5359V34ZM22 37L20.6907 38.5119L22 39.6458L23.3093 38.5119L22 37ZM25.4641 34V32H24.7185L24.1548 32.4881L25.4641 34ZM8 4V0C5.79086 0 4 1.79086 4 4H8ZM8 32V4H4V32H8ZM8 32H4C4 34.2091 5.79086 36 8 36V32ZM18.5359 32H8V36H18.5359V32ZM23.3093 35.4881L19.8452 32.4881L17.2266 35.5119L20.6907 38.5119L23.3093 35.4881ZM24.1548 32.4881L20.6907 35.4881L23.3093 38.5119L26.7734 35.5119L24.1548 32.4881ZM36 32H25.4641V36H36V32ZM36 32V36C38.2091 36 40 34.2091 40 32H36ZM36 4V32H40V4H36ZM36 4H40C40 1.79086 38.2091 0 36 0V4ZM8 4H36V0H8V4Z" fill="white" mask="url(#path-1-outside-1)"/>
<path d="M19.3393 11.0857C20.2658 11.0857 21.0133 10.3956 21.0133 9.54573C21.0133 8.69012 20.2658 8 19.3393 8C18.4193 8 17.6719 8.69014 17.6719 9.54573C17.6719 10.3956 18.4193 11.0857 19.3393 11.0857ZM31.7556 15.5317L29.9856 15.2189L28.9557 17.1094C29.1222 17.1463 29.2941 17.1625 29.4726 17.1625C30.5716 17.162 31.4916 16.4719 31.7556 15.5316V15.5317ZM10 18.7236C10 17.4705 11.0985 16.6087 12.456 16.6087H17.4999V13.0141C17.4999 12.159 18.3244 11.4688 19.2503 11.4688C20.1763 11.4688 20.9998 12.159 20.9998 13.0141V13.545L23.4592 14.1294C23.8897 14.2193 24.1622 14.6177 24.0652 15.0161C23.9677 15.4202 23.5413 15.6694 23.1048 15.5795L20.9998 15.1228V16.6087H23.4693L30.2671 10.0336L30.0651 11.6831L33.4121 13.7191C33.9651 14.0113 34.1661 14.6598 33.85 15.1691C33.602 15.5785 33.1075 15.7703 32.6416 15.6904L32.3716 15.6402C32.0491 16.8459 30.8696 17.7317 29.4726 17.7317C29.1972 17.7317 28.8581 17.6939 28.6051 17.6303L25.9997 22.4153V28.9808C25.9997 29.5437 25.6062 30 24.9967 30C24.3862 30 23.9997 29.5437 23.9997 28.9804V22.3478H18.3278L17.3269 23.8902L19.4208 28.4806C19.7253 28.9737 19.5358 29.5858 19.0073 29.8618C18.4718 30.1435 17.7739 29.9632 17.4689 29.4691L14.9999 24.147V22.453L13.9999 24.0413V28.9804C13.9999 29.5437 13.3614 30 12.752 30C12.1425 30 11.5 29.5437 11.5 28.9804V23.2752L12.5 21.9518V17.4753L11.5 18.7609V22.3478H10V18.7236V18.7236Z" fill="#F3961B"/>
</g>
<defs>
<filter id="filter0_d" x="0" y="0" width="44" height="47.6458" filterUnits="userSpaceOnUse" color-interpolation-filters="sRGB">
<feFlood flood-opacity="0" result="BackgroundImageFix"/>
<feColorMatrix in="SourceAlpha" type="matrix" values="0 0 0 0 0 0 0 0 0 0 0 0 0 0 0 0 0 0 127 0"/>
<feOffset dy="4"/>
<feGaussianBlur stdDeviation="2"/>
<feColorMatrix type="matrix" values="0 0 0 0 0 0 0 0 0 0 0 0 0 0 0 0 0 0 0.25 0"/>
<feBlend mode="normal" in2="BackgroundImageFix" result="effect1_dropShadow"/>
<feBlend mode="normal" in="SourceGraphic" in2="effect1_dropShadow" result="shape"/>
</filter>
</defs>
</svg>
