<svg width="44" height="48" viewBox="0 0 44 48" fill="none" xmlns="http://www.w3.org/2000/svg">
<g filter="url(#filter0_d)">
<mask id="path-1-outside-1" maskUnits="userSpaceOnUse" x="4" y="0" width="36" height="40" fill="black">
<rect fill="white" x="4" width="36" height="40"/>
<path fill-rule="evenodd" clip-rule="evenodd" d="M8 2C6.89543 2 6 2.89543 6 4V32C6 33.1046 6.89543 34 8 34H18.5359L22 37L25.4641 34H36C37.1046 34 38 33.1046 38 32V4C38 2.89543 37.1046 2 36 2H8Z"/>
</mask>
<path fill-rule="evenodd" clip-rule="evenodd" d="M8 2C6.89543 2 6 2.89543 6 4V32C6 33.1046 6.89543 34 8 34H18.5359L22 37L25.4641 34H36C37.1046 34 38 33.1046 38 32V4C38 2.89543 37.1046 2 36 2H8Z" fill="#FBDDDD"/>
<path d="M18.5359 34L19.8452 32.4881L19.2815 32H18.5359V34ZM22 37L20.6907 38.5119L22 39.6458L23.3093 38.5119L22 37ZM25.4641 34V32H24.7185L24.1548 32.4881L25.4641 34ZM8 4V0C5.79086 0 4 1.79086 4 4H8ZM8 32V4H4V32H8ZM8 32H4C4 34.2091 5.79086 36 8 36V32ZM18.5359 32H8V36H18.5359V32ZM23.3093 35.4881L19.8452 32.4881L17.2266 35.5119L20.6907 38.5119L23.3093 35.4881ZM24.1548 32.4881L20.6907 35.4881L23.3093 38.5119L26.7734 35.5119L24.1548 32.4881ZM36 32H25.4641V36H36V32ZM36 32V36C38.2091 36 40 34.2091 40 32H36ZM36 4V32H40V4H36ZM36 4H40C40 1.79086 38.2091 0 36 0V4ZM8 4H36V0H8V4Z" fill="white" mask="url(#path-1-outside-1)"/>
<path d="M13.4346 12.9472L13.4911 13.5075C15.7293 14.5811 18.2711 14.5811 20.509 13.5075L20.5673 12.9472C18.2965 11.8361 15.7056 11.8361 13.4346 12.9472Z" fill="#EB5757"/>
<path d="M13.8428 14.2014C15.8827 15.0189 18.1182 15.0189 20.1563 14.2014C20.3651 14.9212 20.3651 15.6951 20.1563 16.4178C19.601 18.3407 17.7372 19.3999 15.994 18.7897C14.2502 18.1737 13.2861 16.1209 13.8428 14.2014Z" fill="#EB5757"/>
<path d="M21.2527 11.0656L20.4421 12.4139C18.2427 11.3824 15.757 11.3824 13.5589 12.4139L12.7488 11.0656C12.7366 11.0464 12.7278 11.0267 12.7205 11.0055C12.6566 10.8326 12.732 10.6351 12.8895 10.5645C13.9171 10.106 14.8596 9.4366 15.6622 8.59116C16.4105 7.80295 17.5892 7.80295 18.339 8.59116C19.1405 9.4366 20.0828 10.106 21.1108 10.5645C21.1312 10.5728 21.1493 10.5862 21.1652 10.5957C21.3075 10.7001 21.346 10.9088 21.2527 11.0656ZM16.1986 9.12516C16.1245 9.83034 16.4401 10.5141 17.0003 10.8616C17.5601 10.5141 17.8754 9.83034 17.8025 9.12516C17.7879 9.1349 17.7744 9.1461 17.7609 9.15414C17.496 9.3258 17.1554 9.22767 17.0001 8.93718C16.9923 8.95008 16.9833 8.96664 16.9747 8.98125C16.797 9.25738 16.4489 9.32118 16.1986 9.12516Z" fill="#EB5757"/>
<path d="M19.9998 19.4799C23.0424 21.0711 24.6268 24.8237 23.7679 28.4144C19.4604 30.5285 14.5395 30.5285 10.2323 28.4144C9.37287 24.8237 10.9578 21.0711 14.0021 19.4799C15.7585 21.0139 18.241 21.0139 19.9998 19.4799Z" fill="#EB5757"/>
<path d="M25.2885 7.47564L25.8365 6H34V6.86311L33.5962 7.92111H31.2596C31.101 8.97912 30.5096 9.52204 28.649 9.31323L27.6538 11.9722L25 12C25.1875 9.04872 27.4231 8.32483 25.2885 7.47564ZM30.4375 8.81207C30.6971 8.65893 30.8413 8.38051 30.9135 7.92111V7.90719H29.7885C29.8029 7.94896 29.8173 7.99072 29.8317 8.01856C29.8894 8.14385 29.976 8.25522 30.1202 8.39443C30.1923 8.46404 30.2067 8.58933 30.1346 8.65893C30.0625 8.72854 29.9471 8.74246 29.8606 8.67285C29.6875 8.51972 29.5577 8.35267 29.4856 8.18561C29.4423 8.10209 29.4135 8.00464 29.399 7.92111H29.1827L28.7933 8.9652C29.6731 9.06265 30.149 8.97912 30.4375 8.81207Z" fill="#EB5757"/>
</g>
<defs>
<filter id="filter0_d" x="0" y="0" width="44" height="47.6458" filterUnits="userSpaceOnUse" color-interpolation-filters="sRGB">
<feFlood flood-opacity="0" result="BackgroundImageFix"/>
<feColorMatrix in="SourceAlpha" type="matrix" values="0 0 0 0 0 0 0 0 0 0 0 0 0 0 0 0 0 0 127 0"/>
<feOffset dy="4"/>
<feGaussianBlur stdDeviation="2"/>
<feColorMatrix type="matrix" values="0 0 0 0 0 0 0 0 0 0 0 0 0 0 0 0 0 0 0.25 0"/>
<feBlend mode="normal" in2="BackgroundImageFix" result="effect1_dropShadow"/>
<feBlend mode="normal" in="SourceGraphic" in2="effect1_dropShadow" result="shape"/>
</filter>
</defs>
</svg>
