<svg width="44" height="48" viewBox="0 0 44 48" fill="none" xmlns="http://www.w3.org/2000/svg">
<g filter="url(#filter0_d)">
<mask id="path-1-outside-1" maskUnits="userSpaceOnUse" x="4" y="0" width="36" height="40" fill="black">
<rect fill="white" x="4" width="36" height="40"/>
<path fill-rule="evenodd" clip-rule="evenodd" d="M8 2C6.89543 2 6 2.89543 6 4V32C6 33.1046 6.89543 34 8 34H18.5359L22 37L25.4641 34H36C37.1046 34 38 33.1046 38 32V4C38 2.89543 37.1046 2 36 2H8Z"/>
</mask>
<path fill-rule="evenodd" clip-rule="evenodd" d="M8 2C6.89543 2 6 2.89543 6 4V32C6 33.1046 6.89543 34 8 34H18.5359L22 37L25.4641 34H36C37.1046 34 38 33.1046 38 32V4C38 2.89543 37.1046 2 36 2H8Z" fill="#BFE4FF"/>
<path d="M18.5359 34L19.8452 32.4881L19.2815 32H18.5359V34ZM22 37L20.6907 38.5119L22 39.6458L23.3093 38.5119L22 37ZM25.4641 34V32H24.7185L24.1548 32.4881L25.4641 34ZM8 4V0C5.79086 0 4 1.79086 4 4H8ZM8 32V4H4V32H8ZM8 32H4C4 34.2091 5.79086 36 8 36V32ZM18.5359 32H8V36H18.5359V32ZM23.3093 35.4881L19.8452 32.4881L17.2266 35.5119L20.6907 38.5119L23.3093 35.4881ZM24.1548 32.4881L20.6907 35.4881L23.3093 38.5119L26.7734 35.5119L24.1548 32.4881ZM36 32H25.4641V36H36V32ZM36 32V36C38.2091 36 40 34.2091 40 32H36ZM36 4V32H40V4H36ZM36 4H40C40 1.79086 38.2091 0 36 0V4ZM8 4H36V0H8V4Z" fill="white" mask="url(#path-1-outside-1)"/>
<path d="M17.9253 11.3971L17.9899 12.0084C20.5478 13.1796 23.4527 13.1796 26.0103 12.0084L26.077 11.3971C23.4818 10.185 20.5208 10.185 17.9253 11.3971Z" fill="#0094FF"/>
<path d="M18.3916 12.7653C20.723 13.657 23.2778 13.657 25.6071 12.7653C25.8458 13.5505 25.8458 14.3947 25.6071 15.1831C24.9725 17.2808 22.8424 18.4364 20.8503 17.7707C18.8574 17.0986 17.7555 14.8593 18.3916 12.7653Z" fill="#0094FF"/>
<path d="M26.8601 9.34432L25.9337 10.8152C23.4201 9.68992 20.5793 9.68992 18.0672 10.8152L17.1413 9.34432C17.1274 9.32334 17.1173 9.30182 17.109 9.27871C17.036 9.09011 17.1221 8.87467 17.3022 8.79764C18.4766 8.29744 19.5537 7.5672 20.471 6.6449C21.3261 5.78503 22.6733 5.78503 23.5302 6.6449C24.4462 7.5672 25.5231 8.29744 26.698 8.79764C26.7212 8.80667 26.7419 8.82128 26.7601 8.83164C26.9227 8.9456 26.9667 9.17325 26.8601 9.34432ZM21.0839 7.22745C20.9993 7.99674 21.36 8.74265 22.0002 9.12172C22.6399 8.74265 23.0003 7.99674 22.917 7.22745C22.9003 7.23808 22.8849 7.25029 22.8695 7.25906C22.5667 7.44634 22.1775 7.33928 21.9999 7.02238C21.9911 7.03646 21.9808 7.05452 21.9709 7.07046C21.7678 7.37169 21.3701 7.44129 21.0839 7.22745Z" fill="#0094FF"/>
<path d="M25.4284 18.5234C28.9056 20.2594 30.7164 24.3531 29.7347 28.2703C24.8119 30.5765 19.188 30.5765 14.2655 28.2703C13.2833 24.3531 15.0946 20.2594 18.5738 18.5234C20.5811 20.197 23.4183 20.197 25.4284 18.5234Z" fill="#0094FF"/>
</g>
<defs>
<filter id="filter0_d" x="0" y="0" width="44" height="47.6458" filterUnits="userSpaceOnUse" color-interpolation-filters="sRGB">
<feFlood flood-opacity="0" result="BackgroundImageFix"/>
<feColorMatrix in="SourceAlpha" type="matrix" values="0 0 0 0 0 0 0 0 0 0 0 0 0 0 0 0 0 0 127 0"/>
<feOffset dy="4"/>
<feGaussianBlur stdDeviation="2"/>
<feColorMatrix type="matrix" values="0 0 0 0 0 0 0 0 0 0 0 0 0 0 0 0 0 0 0.25 0"/>
<feBlend mode="normal" in2="BackgroundImageFix" result="effect1_dropShadow"/>
<feBlend mode="normal" in="SourceGraphic" in2="effect1_dropShadow" result="shape"/>
</filter>
</defs>
</svg>
