<svg width="36" height="40" viewBox="0 0 36 40" fill="none" xmlns="http://www.w3.org/2000/svg">
<mask id="path-1-outside-1" maskUnits="userSpaceOnUse" x="0" y="0" width="36" height="40" fill="black">
<rect fill="white" width="36" height="40"/>
<path fill-rule="evenodd" clip-rule="evenodd" d="M4 2C2.89543 2 2 2.89543 2 4V32C2 33.1046 2.89543 34 4 34H14.5359L18 37L21.4641 34H32C33.1046 34 34 33.1046 34 32V4C34 2.89543 33.1046 2 32 2H4Z"/>
</mask>
<path fill-rule="evenodd" clip-rule="evenodd" d="M4 2C2.89543 2 2 2.89543 2 4V32C2 33.1046 2.89543 34 4 34H14.5359L18 37L21.4641 34H32C33.1046 34 34 33.1046 34 32V4C34 2.89543 33.1046 2 32 2H4Z" fill="#FDEAD1"/>
<path d="M14.5359 34L15.8452 32.4881L15.2815 32H14.5359V34ZM18 37L16.6907 38.5119L18 39.6458L19.3093 38.5119L18 37ZM21.4641 34V32H20.7185L20.1548 32.4881L21.4641 34ZM4 4V0C1.79086 0 0 1.79086 0 4H4ZM4 32V4H0V32H4ZM4 32H0C0 34.2091 1.79086 36 4 36V32ZM14.5359 32H4V36H14.5359V32ZM19.3093 35.4881L15.8452 32.4881L13.2266 35.5119L16.6907 38.5119L19.3093 35.4881ZM20.1548 32.4881L16.6907 35.4881L19.3093 38.5119L22.7734 35.5119L20.1548 32.4881ZM32 32H21.4641V36H32V32ZM32 32V36C34.2091 36 36 34.2091 36 32H32ZM32 4V32H36V4H32ZM32 4H36C36 1.79086 34.2091 0 32 0V4ZM4 4H32V0H4V4Z" fill="white" mask="url(#path-1-outside-1)"/>
<path d="M28.7692 16.125H28.4289L24.648 9.51953C24.4849 9.23394 24.0738 9 23.7354 9H12.2646C11.9262 9 11.5151 9.23394 11.352 9.51953L7.57046 16.125H7.23077C6.55385 16.125 6 16.6594 6 17.3125V23.25C6 23.9031 6.55385 24.4375 7.23077 24.4375H8.46154V26.2188C8.46154 27.1984 9.29231 28 10.3077 28H10.9231C11.9385 28 12.7692 27.1984 12.7692 26.2188V24.4375H23.2308V26.2188C23.2308 27.1984 24.0615 28 25.0769 28H25.6923C26.7077 28 27.5385 27.1984 27.5385 26.2188V24.4375H28.7692C29.4462 24.4375 30 23.9031 30 23.25V17.3125C30 16.6594 29.4462 16.125 28.7692 16.125ZM9.38462 20.875C8.53477 20.875 7.84615 20.2106 7.84615 19.3906C7.84615 18.5707 8.53477 17.9062 9.38462 17.9062C10.2345 17.9062 10.9231 18.5707 10.9231 19.3906C10.9231 20.2106 10.2345 20.875 9.38462 20.875ZM10.6154 16.125L13.1095 11.3127C13.2609 11.0199 13.6615 10.7813 14 10.7813H22C22.3385 10.7813 22.7391 11.0199 22.8905 11.3127L25.3846 16.125H10.6154ZM26.6154 20.875C25.7655 20.875 25.0769 20.2106 25.0769 19.3906C25.0769 18.5707 25.7655 17.9062 26.6154 17.9062C27.4652 17.9062 28.1538 18.5707 28.1538 19.3906C28.1538 20.2106 27.4652 20.875 26.6154 20.875Z" fill="#F3961B"/>
</svg>
